<svg xmlns="http://www.w3.org/2000/svg" width="120" height="121" viewBox="0 0 120 121" fill="none"><rect opacity="0.1" x="-0.000244141" y="0.00195312" width="120" height="120" rx="60" fill="#FF5E14"></rect><path d="M59.9998 44.4023C58.0126 44.4023 56.3998 46.0151 56.3998 48.0023V50.4021H63.5998V48.0023C63.5998 46.0151 61.9877 44.4023 59.9998 44.4023Z" fill="CurrentColor"></path><path d="M36 36.0023V52.7999C36 58.0782 37.062 63.1167 38.9621 67.7125C40.9356 72.4775 43.8091 76.7636 47.3904 80.3571C50.9767 83.9507 55.2535 86.8292 59.9998 88.802C64.746 86.8292 69.0228 83.9507 72.6091 80.3571C76.1933 76.7643 79.0639 72.4782 81.0396 67.7125C82.9382 63.116 83.9995 58.0775 83.9995 52.7999V36.0023C68.0011 29.3653 50.8356 29.8434 36 36.0023ZM72 66.0025C72 67.9825 70.3829 69.6025 68.4 69.6025H51.6002C49.6217 69.6025 48.0002 67.9825 48.0002 66.0025V54.0023C48.0002 52.0215 49.6217 50.4023 51.6002 50.4023H52.7998V48.0025C52.7998 44.0252 56.0246 40.8025 59.9998 40.8025C63.9749 40.8025 67.1998 44.0252 67.1998 48.0025V50.4023H68.4C70.3829 50.4023 72 52.0215 72 54.0023V66.0025Z" fill="CurrentColor"></path><path d="M62.3995 56.4019H57.6V63.6019H62.3995V56.4019Z" fill="CurrentColor"></path></svg>