<svg xmlns="http://www.w3.org/2000/svg" width="120" height="121" viewBox="0 0 120 121" fill="none"><rect opacity="0.1" x="-0.000244141" y="0.00585938" width="120" height="120" rx="60" fill="#FF5E14"></rect><path d="M83.9995 31.2061V40.8065H79.2V31.2061H74.3998V45.6061H83.9995V52.8061H88.7998V31.2061H83.9995Z" fill="CurrentColor"></path><path d="M57.6 38.4061C57.6 34.4317 60.8248 31.2061 64.8 31.2061C68.7765 31.2061 72.0021 34.4317 72 38.4061C72 40.3918 71.1936 42.1918 69.8904 43.495L64.3867 48.0065H71.9992V52.8061H57.5992V48.0065L66.4956 40.1009C66.7591 39.836 67.1997 39.2693 67.1997 38.4061C67.1997 37.0798 66.1262 36.007 64.8 36.007C63.4752 36.007 62.3995 37.0798 62.3995 38.4061H57.6Z" fill="CurrentColor"></path><path d="M79.2 57.6069C76.549 57.6069 74.3998 59.7525 74.3998 62.4065V76.8065C74.3998 79.4604 76.549 81.606 79.2 81.606H83.9995C86.6506 81.606 88.7998 79.4546 88.7998 76.8065V57.6069H79.2Z" fill="CurrentColor"></path><path d="M57.5999 79.207V84.0065H45.5997V62.4065C45.5997 59.7526 43.4505 57.607 40.7995 57.607H35.9999V50.407C35.9999 42.4517 42.4497 36.007 50.3999 36.007H52.7997V31.2061H50.3999C39.8008 31.2061 31.1997 39.7985 31.1997 50.407V76.8065C31.1997 79.4547 33.3489 81.606 35.9999 81.606H40.7995V84.0065C40.7995 86.6576 42.9487 88.806 45.5997 88.806H62.3995V79.207H57.5999Z" fill="CurrentColor"></path></svg>