<svg xmlns="http://www.w3.org/2000/svg" width="121" height="121" viewBox="0 0 121 121" fill="none"><rect opacity="0.1" x="0.00292969" y="0.00195312" width="120" height="120" rx="60" fill="#FF5E14"></rect><path d="M85.4089 31.2021L76.8028 39.8061L72.9969 36.0024L69.6028 39.3957L76.8028 46.5957L88.803 34.5955L85.4089 31.2021Z" fill="CurrentColor"></path><path d="M56.4028 87.9176V61.8349L76.8026 54.3159V61.4871L64.8031 65.9101V84.8245L56.4028 87.9176Z" fill="CurrentColor"></path><path d="M88.803 74.4351C88.803 78.7284 87.0592 82.6143 84.2469 85.4295C82.8177 86.8637 81.1019 88.0128 79.2033 88.8027C77.3046 88.0128 75.5982 86.8644 74.1589 85.4295C71.3466 82.615 69.6028 78.7284 69.6028 74.4351V69.1193C75.537 66.6627 82.4044 66.4654 88.803 69.1193V74.4351Z" fill="CurrentColor"></path><path d="M54.0031 40.8018L31.2029 49.202L54.0031 57.6022L76.8026 49.202L54.0031 40.8018Z" fill="CurrentColor"></path><path d="M51.6026 61.8349L31.2029 54.3159V80.4015L51.6026 87.9176V61.8349Z" fill="CurrentColor"></path></svg>