<svg xmlns="http://www.w3.org/2000/svg" width="120" height="121" viewBox="0 0 120 121" fill="none"><rect opacity="0.1" x="-0.000244141" y="0.00537109" width="120" height="120" rx="60" fill="#FF5E14"></rect><path d="M88.7998 38.4056C88.7998 42.385 82.8936 45.6056 75.6 45.6056C68.3107 45.6056 62.3995 42.385 62.3995 38.4056C62.3995 34.4283 68.3107 31.2056 75.6 31.2056C82.8936 31.2056 88.7998 34.4283 88.7998 38.4056Z" fill="CurrentColor"></path><path d="M62.3995 46.7114C65.6388 49.0068 70.2706 50.4057 75.6 50.4057C80.9266 50.4057 85.5634 49.0068 88.7998 46.7114V52.2662C85.1206 54.1274 80.6011 55.2053 75.6 55.2053C70.5982 55.2053 66.0795 54.1274 62.3995 52.2662V46.7114Z" fill="CurrentColor"></path><path d="M69.5995 72.0057C69.5995 75.9851 63.6933 79.2057 56.3997 79.2057C49.1104 79.2057 43.2 75.9851 43.2 72.0057C43.2 68.0284 49.1104 64.8057 56.3997 64.8057C63.6933 64.8057 69.5995 68.0284 69.5995 72.0057Z" fill="CurrentColor"></path><path d="M75.6 69.6052C75.1853 69.6052 74.8051 69.5419 74.3998 69.526V74.3407C74.803 74.3543 75.1896 74.4055 75.6 74.4055C80.6011 74.4055 85.1206 73.3276 88.7998 71.4664V65.9116C85.5634 68.2063 80.9266 69.6052 75.6 69.6052Z" fill="CurrentColor"></path><path d="M75.6 79.2058C75.1853 79.2058 74.8051 79.1424 74.3998 79.1259V83.9405C74.803 83.9549 75.1896 84.006 75.6 84.006C80.6011 84.006 85.1206 82.9282 88.7998 81.067V75.5122C85.5634 77.8068 80.9266 79.2058 75.6 79.2058Z" fill="CurrentColor"></path><path d="M43.2 80.3115C46.4385 82.6062 51.0703 84.0051 56.3997 84.0051C61.727 84.0051 66.3631 82.6062 69.5995 80.3115V85.8663C65.9203 87.7275 61.4008 88.8054 56.3997 88.8054C51.3986 88.8054 46.8792 87.7275 43.2 85.8663V80.3115Z" fill="CurrentColor"></path><path d="M43.1999 45.6056H38.3997C37.0727 45.6056 35.9999 44.532 35.9999 43.2058H35.9949H35.9999C35.9999 41.8788 37.0727 40.8053 38.3997 40.8053V40.8032V40.8053H43.1999C44.5262 40.8053 45.5997 41.8788 45.5997 43.2058H50.3999C50.3999 39.2307 47.1751 36.0058 43.1999 36.0058V31.2056H38.3997V36.0058C34.4246 36.0058 31.1997 39.2307 31.1997 43.2058C31.1997 47.1809 34.4246 50.4058 38.3997 50.4058H43.1999C44.5262 50.4058 45.5997 51.4786 45.5997 52.8056H45.5947C45.5947 54.1325 44.5219 55.2053 43.1949 55.2053H38.3997C37.0727 55.2053 35.9999 54.1325 35.9999 52.8056H31.1997C31.1997 56.7807 34.4246 60.0056 38.3997 60.0056V64.8058H43.1999V60.0056C47.1751 60.0005 50.3949 56.7807 50.3949 52.8056H50.3999C50.3999 48.8304 47.1751 45.6056 43.1999 45.6056Z" fill="CurrentColor"></path><path d="M62.3995 56.312C65.6388 58.6067 70.2706 60.0056 75.6 60.0056C80.9266 60.0056 85.5634 58.6067 88.7998 56.312V61.8668C85.1206 63.7273 80.6011 64.8059 75.6 64.8059C70.5982 64.8059 66.0795 63.7273 62.3995 61.8668V56.312Z" fill="CurrentColor"></path></svg>