<svg xmlns="http://www.w3.org/2000/svg" width="121" height="121" viewBox="0 0 121 121" fill="none"><rect opacity="0.1" x="0.00292969" y="0.00537109" width="120" height="120" rx="60" fill="#FF5E14"></rect><path d="M45.603 81.6055C48.9166 81.6055 51.6028 78.9193 51.6028 75.6057C51.6028 72.2921 48.9166 69.606 45.603 69.606C42.2895 69.606 39.6033 72.2921 39.6033 75.6057C39.6033 78.9193 42.2895 81.6055 45.603 81.6055Z" fill="CurrentColor"></path><path d="M88.8028 72.0064H79.175C78.0784 70.5578 76.3576 69.606 74.4028 69.606C71.0887 69.606 68.4031 72.2916 68.4031 75.6064C68.4031 78.9206 71.0887 81.6062 74.4028 81.6062C77.3044 81.6062 79.7236 79.5441 80.2809 76.806H88.8028V72.0064Z" fill="CurrentColor"></path><path d="M60.0029 48.0054H45.6029L40.8026 60.0056L31.2029 62.4054V76.8061H36.0031V75.6066C36.0031 70.3095 40.308 66.0054 45.6029 66.0054C50.8956 66.0054 55.2026 70.3095 55.2026 75.6066V76.8061H64.8031V72.0066H60.0029V48.0054Z" fill="CurrentColor"></path><path d="M55.2026 38.4048V43.205H64.8031V67.2062H88.8029V38.4048H55.2026Z" fill="CurrentColor"></path></svg>