<svg xmlns="http://www.w3.org/2000/svg" width="121" height="121" viewBox="0 0 121 121" fill="none"><rect opacity="0.1" x="0.00292969" y="0.00585938" width="120" height="120" rx="60" fill="#FF5E14"></rect><path d="M57.6031 31.2061C49.6529 31.2061 43.2031 37.6515 43.2031 45.6061C43.2031 49.5812 44.813 53.1812 47.4216 55.7919L57.6031 64.8063L67.7868 55.7876C70.3954 53.1812 72.0053 49.5812 72.0031 45.6061C72.0031 37.6558 65.5577 31.2061 57.6031 31.2061ZM57.6031 51.6058C54.2882 51.6058 51.6026 48.9202 51.6026 45.6061C51.6026 42.2962 54.2882 39.6063 57.6031 39.6063C60.9173 39.6063 63.6007 42.2962 63.6007 45.6061C63.6007 48.9202 60.9173 51.6058 57.6031 51.6058Z" fill="CurrentColor"></path><path d="M88.8029 36.0063C88.8029 38.6545 86.6537 40.8058 84.0026 40.8058C81.3516 40.8058 79.2031 38.6545 79.2031 36.0063C79.2031 33.3524 81.3516 31.2061 84.0026 31.2061C86.6537 31.2061 88.8029 33.3524 88.8029 36.0063Z" fill="CurrentColor"></path><path d="M40.8026 84.0056C40.8026 86.6545 38.6542 88.8058 36.0031 88.8058C33.3521 88.8058 31.2029 86.6545 31.2029 84.0056C31.2029 81.3524 33.3521 79.2061 36.0031 79.2061C38.6542 79.2061 40.8026 81.3524 40.8026 84.0056Z" fill="CurrentColor"></path><path d="M72.0032 62.4058H64.8032V67.206H72.0032V62.4058Z" fill="CurrentColor"></path><path d="M48.0028 62.4058H33.6028V74.406H38.403V67.206H48.0028V62.4058Z" fill="CurrentColor"></path><path d="M86.4033 45.606H81.603V52.806H86.4033V45.606Z" fill="CurrentColor"></path><path d="M81.603 57.606V62.4055H76.8027V67.2057H86.4032V57.606H81.603Z" fill="CurrentColor"></path></svg>