<svg xmlns="http://www.w3.org/2000/svg" width="72" height="72" viewBox="0 0 72 72" fill="none"><path d="M45.3283 8.77531C42.3986 7.77235 39.2695 7.19995 36 7.19995C20.0952 7.19995 7.19995 20.0952 7.19995 36C7.19995 39.2695 7.77163 42.3986 8.77531 45.3283C13.284 27.396 27.396 13.2861 45.3283 8.77531Z" fill="white" fill-opacity="0.9"></path><path d="M43.1977 63.5622C45.0705 61.6916 45.0705 58.6453 43.1999 56.7748L36.4125 49.9866C32.667 46.2462 32.667 40.1572 36.4125 36.4117C38.2218 34.6016 40.6281 33.6037 43.1927 33.5994H64.6782C64.4341 30.6575 63.7545 27.8452 62.6953 25.2222C61.1437 25.9566 59.428 26.3994 57.5999 26.3994C54.2037 26.3994 51.1473 24.9673 48.9635 22.6914C36.051 25.8882 25.8889 36.0488 22.6921 48.9599C24.9659 51.1465 26.4001 54.2029 26.4001 57.5992C26.4001 59.4272 25.9573 61.143 25.2229 62.6946C28.5537 64.0403 32.1868 64.7999 35.9999 64.7999C38.3485 64.7999 40.6173 64.4881 42.801 63.9582L43.1977 63.5622Z" fill="white" fill-opacity="0.9"></path><path d="M43.1951 38.3997C41.9675 38.4047 40.7413 38.8684 39.8039 39.8058C37.929 41.6807 37.929 44.7184 39.8039 46.594L46.5913 53.3836C48.8183 55.6084 49.6902 58.6497 49.2733 61.5426C57.8204 57.0916 63.8439 48.4876 64.6784 38.3997H43.1951Z" fill="white" fill-opacity="0.9"></path><path d="M57.5999 7.19995C54.2548 7.19995 51.4684 9.49531 50.6599 12.5856C31.0759 15.5973 15.5973 31.0759 12.5856 50.6599C9.49243 51.4684 7.19995 54.2548 7.19995 57.5999C7.19995 61.5751 10.4248 64.7999 14.4 64.7999C18.3751 64.7999 21.5999 61.5751 21.5999 57.5999C21.5999 54.6868 19.8611 52.1927 17.3721 51.0587C20.1657 33.7759 33.778 20.1635 51.0587 17.3721C52.1927 19.8611 54.689 21.5999 57.5999 21.5999C61.5751 21.5999 64.7999 18.3751 64.7999 14.4C64.7999 10.4248 61.5751 7.19995 57.5999 7.19995ZM14.4 59.9997C13.073 59.9997 12.0002 58.924 12.0002 57.5999C12.0002 56.2759 13.073 55.2002 14.4 55.2002C15.7269 55.2002 16.7997 56.2759 16.7997 57.5999C16.7997 58.924 15.7269 59.9997 14.4 59.9997ZM57.5999 16.7997C56.2759 16.7997 55.2002 15.7269 55.2002 14.4C55.2002 13.0737 56.2759 11.9995 57.5999 11.9995C58.924 11.9995 59.9997 13.0737 59.9997 14.4C59.9997 15.7269 58.924 16.7997 57.5999 16.7997Z" fill="white" fill-opacity="0.9"></path></svg>