<svg xmlns="http://www.w3.org/2000/svg" width="72" height="72" viewBox="0 0 72 72" fill="none"><path d="M58.8002 51.6001C56.3414 51.6001 54.2339 53.0812 53.3059 55.2001H42.7593C41.7679 52.4058 39.1312 50.3999 35.9999 50.3999C32.8687 50.3999 30.2342 52.4058 29.2406 55.2001H18.694C17.766 53.0812 15.6585 51.6001 13.1997 51.6001C9.88555 51.6001 7.19995 54.2857 7.19995 57.5999C7.19995 60.9141 9.88555 63.5997 13.1997 63.5997C15.6607 63.5997 17.7681 62.1143 18.694 59.9997H29.2406C30.232 62.7889 32.8687 64.7999 35.9999 64.7999C39.1312 64.7999 41.7679 62.7889 42.7593 59.9997H53.3059C54.2318 62.1143 56.3392 63.5997 58.8002 63.5997C62.1143 63.5997 64.7999 60.9141 64.7999 57.5999C64.7999 54.2857 62.1143 51.6001 58.8002 51.6001ZM35.9999 59.9997C34.673 59.9997 33.6002 58.9269 33.6002 57.5999C33.6002 56.2729 34.673 55.2001 35.9999 55.2001C37.3269 55.2001 38.3997 56.2729 38.3997 57.5999C38.3997 58.9269 37.3269 59.9997 35.9999 59.9997Z" fill="white" fill-opacity="0.9"></path><path d="M36 7.19995C26.7256 7.19995 19.2002 14.7182 19.2002 23.9997C19.2002 28.6358 21.0794 32.8356 24.1221 35.8783L36 46.7999L47.8807 35.8732C50.9227 32.8356 52.8026 28.6358 52.7997 23.9954C52.7997 14.7232 45.2793 7.19995 36 7.19995ZM36 31.1997C32.0248 31.1997 28.8 27.9748 28.8 23.9997C28.8 20.0246 32.0248 16.7997 36 16.7997C39.9772 16.7997 43.2 20.0246 43.2 23.9997C43.2 27.9748 39.9772 31.1997 36 31.1997Z" fill="white" fill-opacity="0.9"></path></svg>